<svg xmlns="http://www.w3.org/2000/svg" xmlns:xlink="http://www.w3.org/1999/xlink" width="1080" zoomAndPan="magnify" viewBox="0 0 810 809.999993" height="1080" preserveAspectRatio="xMidYMid meet" version="1.0"><path fill="#bcfdff" d="M 435.964844 404.996094 L 619.835938 282.285156 C 621.105469 281.46875 622.324219 280.578125 623.488281 279.617188 C 624.652344 278.65625 625.757812 277.628906 626.796875 276.535156 C 627.839844 275.441406 628.816406 274.289062 629.71875 273.078125 C 630.625 271.871094 631.453125 270.609375 632.210938 269.300781 C 632.964844 267.992188 633.636719 266.644531 634.234375 265.257812 C 634.828125 263.867188 635.335938 262.449219 635.761719 261 C 636.1875 259.550781 636.523438 258.078125 636.773438 256.589844 C 637.023438 255.101562 637.183594 253.601562 637.253906 252.089844 C 637.328125 250.59375 637.320312 249.097656 637.21875 247.601562 C 637.121094 246.105469 636.9375 244.621094 636.667969 243.144531 C 636.398438 241.671875 636.042969 240.214844 635.601562 238.78125 C 635.160156 237.347656 634.640625 235.945312 634.039062 234.574219 C 633.433594 233.199219 632.753906 231.867188 631.996094 230.574219 C 631.238281 229.28125 630.410156 228.035156 629.507812 226.835938 C 628.605469 225.640625 627.636719 224.496094 626.601562 223.414062 C 625.566406 222.328125 624.472656 221.308594 623.320312 220.347656 L 391.0625 26.800781 C 389.652344 25.628906 388.171875 24.5625 386.613281 23.601562 C 385.054688 22.640625 383.4375 21.792969 381.757812 21.0625 C 380.078125 20.328125 378.355469 19.71875 376.589844 19.230469 C 374.828125 18.746094 373.035156 18.382812 371.21875 18.152344 C 369.402344 17.917969 367.578125 17.8125 365.75 17.839844 C 363.917969 17.863281 362.097656 18.019531 360.289062 18.304688 C 358.480469 18.585938 356.699219 18.996094 354.949219 19.535156 C 353.195312 20.070312 351.492188 20.726562 349.835938 21.503906 C 348.175781 22.285156 346.582031 23.175781 345.050781 24.179688 C 343.519531 25.183594 342.070312 26.292969 340.695312 27.503906 C 339.320312 28.714844 338.039062 30.015625 336.851562 31.40625 C 335.660156 32.800781 334.574219 34.269531 333.59375 35.816406 C 332.613281 37.363281 331.75 38.96875 330.996094 40.640625 C 330.242188 42.308594 329.613281 44.023438 329.101562 45.78125 C 328.59375 47.542969 328.210938 49.328125 327.957031 51.140625 C 327.699219 52.953125 327.574219 54.777344 327.578125 56.609375 L 327.578125 332.996094 L 172.738281 229.640625 L 172.738281 322.15625 L 296.609375 404.996094 L 172.738281 487.445312 L 172.738281 580.347656 L 327.578125 477.382812 L 327.578125 753.378906 C 327.527344 755.308594 327.621094 757.230469 327.859375 759.144531 C 328.101562 761.058594 328.480469 762.941406 329.003906 764.800781 C 329.527344 766.65625 330.1875 768.464844 330.984375 770.21875 C 331.777344 771.976562 332.703125 773.664062 333.75 775.285156 C 334.800781 776.902344 335.96875 778.433594 337.246094 779.875 C 338.527344 781.316406 339.910156 782.65625 341.390625 783.890625 C 342.875 785.125 344.441406 786.242188 346.089844 787.238281 C 347.742188 788.238281 349.457031 789.105469 351.238281 789.84375 C 353.019531 790.585938 354.847656 791.1875 356.71875 791.652344 C 358.59375 792.117188 360.488281 792.4375 362.410156 792.617188 C 364.328125 792.792969 366.253906 792.828125 368.179688 792.71875 C 370.105469 792.605469 372.011719 792.351562 373.898438 791.953125 C 375.785156 791.554688 377.632812 791.015625 379.4375 790.339844 C 381.246094 789.664062 382.988281 788.855469 384.675781 787.914062 C 386.359375 786.972656 387.964844 785.914062 389.488281 784.730469 C 391.011719 783.550781 392.441406 782.261719 393.769531 780.863281 L 623.320312 589.640625 C 624.472656 588.679688 625.566406 587.660156 626.601562 586.574219 C 627.636719 585.492188 628.605469 584.347656 629.507812 583.152344 C 630.410156 581.953125 631.238281 580.707031 631.996094 579.414062 C 632.753906 578.121094 633.433594 576.789062 634.039062 575.414062 C 634.640625 574.042969 635.160156 572.640625 635.601562 571.207031 C 636.042969 569.773438 636.398438 568.316406 636.667969 566.84375 C 636.9375 565.367188 637.121094 563.882812 637.21875 562.386719 C 637.320312 560.890625 637.328125 559.394531 637.253906 557.898438 C 637.183594 556.386719 637.023438 554.890625 636.773438 553.398438 C 636.523438 551.910156 636.1875 550.4375 635.761719 548.988281 C 635.335938 547.539062 634.828125 546.121094 634.234375 544.730469 C 633.636719 543.34375 632.964844 541.996094 632.210938 540.6875 C 631.453125 539.378906 630.625 538.117188 629.71875 536.910156 C 628.816406 535.699219 627.839844 534.546875 626.796875 533.453125 C 625.757812 532.359375 624.652344 531.332031 623.488281 530.371094 C 622.324219 529.410156 621.105469 528.519531 619.835938 527.703125 Z M 404.996094 139.445312 L 533.898438 246.671875 L 404.996094 332.605469 Z M 404.996094 670.542969 L 404.996094 477.382812 L 533.898438 563.316406 Z M 404.996094 670.542969 " fill-opacity="1" fill-rule="nonzero"/></svg>