<svg width="219" height="61" viewBox="0 0 219 61" fill="none" xmlns="http://www.w3.org/2000/svg">
<path d="M11.392 21.696V32.576H26.048V40.576H11.392V51.68H30.528V60H0.512V13.376H30.528V21.696H11.392ZM30.752 0.255997L20.416 9.376C20.16 9.61066 19.9147 9.792 19.68 9.92C19.4453 10.048 19.2 10.144 18.944 10.208C18.688 10.272 18.4107 10.3147 18.112 10.336C17.8347 10.3573 17.5147 10.368 17.152 10.368H9.92L15.968 1.728C16.224 1.38666 16.4693 1.12 16.704 0.927998C16.96 0.714664 17.2267 0.565331 17.504 0.479996C17.8027 0.373329 18.1333 0.30933 18.496 0.287998C18.88 0.266664 19.3173 0.255997 19.808 0.255997H30.752ZM59.3065 34.688C59.0078 35.0507 58.7198 35.3387 58.4425 35.552C58.1652 35.7653 57.7705 35.872 57.2585 35.872C56.7678 35.872 56.3198 35.7547 55.9145 35.52C55.5305 35.2853 55.0932 35.0293 54.6025 34.752C54.1118 34.4533 53.5358 34.1867 52.8745 33.952C52.2132 33.7173 51.3918 33.6 50.4105 33.6C49.1945 33.6 48.1385 33.824 47.2425 34.272C46.3678 34.72 45.6425 35.36 45.0665 36.192C44.4905 37.024 44.0638 38.048 43.7865 39.264C43.5092 40.4587 43.3705 41.8133 43.3705 43.328C43.3705 46.5067 43.9785 48.9493 45.1945 50.656C46.4318 52.3627 48.1278 53.216 50.2825 53.216C51.4345 53.216 52.3412 53.0773 53.0025 52.8C53.6852 52.5013 54.2612 52.1813 54.7305 51.84C55.1998 51.4773 55.6265 51.1467 56.0105 50.848C56.4158 50.5493 56.9172 50.4 57.5145 50.4C58.3038 50.4 58.9012 50.688 59.3065 51.264L62.1865 54.816C61.1625 55.9893 60.0852 56.9493 58.9545 57.696C57.8238 58.4213 56.6612 58.9973 55.4665 59.424C54.2932 59.8293 53.1092 60.1067 51.9145 60.256C50.7198 60.4267 49.5572 60.512 48.4265 60.512C46.3998 60.512 44.4585 60.128 42.6025 59.36C40.7678 58.592 39.1465 57.4827 37.7385 56.032C36.3518 54.56 35.2425 52.7573 34.4105 50.624C33.5998 48.4907 33.1945 46.0587 33.1945 43.328C33.1945 40.9387 33.5465 38.7093 34.2505 36.64C34.9758 34.5493 36.0318 32.7467 37.4185 31.232C38.8265 29.696 40.5545 28.4907 42.6025 27.616C44.6718 26.7413 47.0612 26.304 49.7705 26.304C52.3732 26.304 54.6558 26.72 56.6185 27.552C58.5812 28.384 60.3518 29.6 61.9305 31.2L59.3065 34.688ZM80.781 26.304C83.2983 26.304 85.5917 26.6987 87.661 27.488C89.7303 28.2773 91.501 29.408 92.973 30.88C94.4663 32.352 95.6183 34.144 96.429 36.256C97.261 38.3467 97.677 40.704 97.677 43.328C97.677 45.9733 97.261 48.3627 96.429 50.496C95.6183 52.608 94.4663 54.4107 92.973 55.904C91.501 57.376 89.7303 58.5173 87.661 59.328C85.5917 60.1173 83.2983 60.512 80.781 60.512C78.2423 60.512 75.9277 60.1173 73.837 59.328C71.7677 58.5173 69.9757 57.376 68.461 55.904C66.9677 54.4107 65.805 52.608 64.973 50.496C64.1623 48.3627 63.757 45.9733 63.757 43.328C63.757 40.704 64.1623 38.3467 64.973 36.256C65.805 34.144 66.9677 32.352 68.461 30.88C69.9757 29.408 71.7677 28.2773 73.837 27.488C75.9277 26.6987 78.2423 26.304 80.781 26.304ZM80.781 53.152C83.0637 53.152 84.7383 52.352 85.805 50.752C86.893 49.1307 87.437 46.6773 87.437 43.392C87.437 40.1067 86.893 37.664 85.805 36.064C84.7383 34.464 83.0637 33.664 80.781 33.664C78.4343 33.664 76.717 34.464 75.629 36.064C74.541 37.664 73.997 40.1067 73.997 43.392C73.997 46.6773 74.541 49.1307 75.629 50.752C76.717 52.352 78.4343 53.152 80.781 53.152ZM132.433 26.816V60H126.289C125.051 60 124.241 59.4453 123.857 58.336L123.281 56.416C122.641 57.0347 121.979 57.6 121.297 58.112C120.614 58.6027 119.878 59.0293 119.089 59.392C118.321 59.7333 117.478 60 116.561 60.192C115.665 60.4053 114.683 60.512 113.617 60.512C111.803 60.512 110.193 60.2027 108.785 59.584C107.398 58.944 106.225 58.0587 105.265 56.928C104.305 55.7973 103.579 54.464 103.089 52.928C102.598 51.392 102.353 49.7067 102.353 47.872V26.816H112.273V47.872C112.273 49.5147 112.646 50.784 113.393 51.68C114.139 52.576 115.238 53.024 116.689 53.024C117.777 53.024 118.79 52.8 119.729 52.352C120.689 51.8827 121.617 51.2533 122.513 50.464V26.816H132.433ZM151.045 60.512C149.466 60.512 148.069 60.288 146.853 59.84C145.658 59.3707 144.645 58.72 143.812 57.888C143.002 57.0347 142.383 56.0107 141.957 54.816C141.53 53.6213 141.317 52.288 141.317 50.816V33.664H138.501C137.989 33.664 137.551 33.504 137.189 33.184C136.826 32.8427 136.645 32.352 136.645 31.712V27.84L141.925 26.816L143.877 18.72C144.133 17.696 144.858 17.184 146.053 17.184H151.237V26.88H159.461V33.664H151.237V50.144C151.237 50.912 151.418 51.552 151.781 52.064C152.165 52.5547 152.709 52.8 153.413 52.8C153.775 52.8 154.074 52.768 154.309 52.704C154.565 52.6187 154.778 52.5333 154.949 52.448C155.141 52.3413 155.311 52.256 155.461 52.192C155.631 52.1067 155.823 52.064 156.037 52.064C156.335 52.064 156.57 52.1387 156.741 52.288C156.933 52.416 157.125 52.6293 157.317 52.928L160.325 57.632C159.045 58.592 157.605 59.3173 156.005 59.808C154.405 60.2773 152.751 60.512 151.045 60.512ZM184.063 39.424C184.063 38.6347 183.956 37.8667 183.743 37.12C183.551 36.3733 183.22 35.712 182.751 35.136C182.303 34.5387 181.705 34.0587 180.959 33.696C180.212 33.3333 179.305 33.152 178.239 33.152C176.361 33.152 174.889 33.696 173.823 34.784C172.756 35.8507 172.052 37.3973 171.711 39.424H184.063ZM171.583 45.184C171.903 47.9573 172.745 49.9733 174.111 51.232C175.476 52.4693 177.236 53.088 179.391 53.088C180.543 53.088 181.535 52.9493 182.367 52.672C183.199 52.3947 183.935 52.0853 184.575 51.744C185.236 51.4027 185.833 51.0933 186.367 50.816C186.921 50.5387 187.497 50.4 188.095 50.4C188.884 50.4 189.481 50.688 189.887 51.264L192.767 54.816C191.743 55.9893 190.633 56.9493 189.439 57.696C188.265 58.4213 187.049 58.9973 185.791 59.424C184.553 59.8293 183.305 60.1067 182.047 60.256C180.809 60.4267 179.625 60.512 178.495 60.512C176.169 60.512 173.983 60.1387 171.935 59.392C169.908 58.624 168.127 57.4933 166.591 56C165.076 54.5067 163.871 52.6507 162.975 50.432C162.1 48.2133 161.663 45.632 161.663 42.688C161.663 40.4693 162.036 38.368 162.783 36.384C163.551 34.4 164.639 32.6613 166.047 31.168C167.476 29.6747 169.193 28.4907 171.199 27.616C173.225 26.7413 175.508 26.304 178.047 26.304C180.244 26.304 182.249 26.6453 184.063 27.328C185.897 28.0107 187.465 29.0027 188.767 30.304C190.089 31.6053 191.113 33.2053 191.839 35.104C192.585 36.9813 192.958 39.1147 192.958 41.504C192.958 42.2507 192.927 42.8587 192.863 43.328C192.799 43.7973 192.681 44.1707 192.511 44.448C192.34 44.7253 192.105 44.9173 191.807 45.024C191.529 45.1307 191.167 45.184 190.719 45.184H171.583ZM207.203 31.936C208.227 30.144 209.4 28.736 210.722 27.712C212.067 26.688 213.603 26.176 215.331 26.176C216.824 26.176 218.04 26.528 218.979 27.232L218.339 34.528C218.232 34.9973 218.051 35.3173 217.795 35.488C217.56 35.6587 217.229 35.744 216.803 35.744C216.632 35.744 216.408 35.7333 216.131 35.712C215.853 35.6907 215.565 35.6693 215.267 35.648C214.968 35.6053 214.659 35.5733 214.339 35.552C214.04 35.5093 213.763 35.488 213.507 35.488C212.056 35.488 210.893 35.872 210.019 36.64C209.165 37.408 208.44 38.4747 207.843 39.84V60H197.923V26.816H203.811C204.301 26.816 204.707 26.8587 205.027 26.944C205.368 27.0293 205.645 27.168 205.859 27.36C206.093 27.5307 206.264 27.7653 206.371 28.064C206.499 28.3627 206.605 28.7253 206.691 29.152L207.203 31.936Z" fill="white"/>
</svg>
