<svg xmlns="http://www.w3.org/2000/svg" xmlns:xlink="http://www.w3.org/1999/xlink" width="1080" zoomAndPan="magnify" viewBox="0 0 810 809.999993" height="1080" preserveAspectRatio="xMidYMid meet" version="1.0"><defs><clipPath id="6014d815ef"><path d="M 541 69.121094 L 717.75 69.121094 L 717.75 729 L 541 729 Z M 541 69.121094 " clip-rule="nonzero"/></clipPath></defs><g clip-path="url(#6014d815ef)"><path fill="#bcfdff" d="M 541.851562 669.761719 C 588.390625 602.808594 638.066406 513.363281 638.066406 399.058594 C 638.066406 283.738281 587.851562 194.3125 541.851562 126.222656 C 561.011719 109.367188 575.925781 87.613281 593.664062 69.121094 C 595.164062 69.523438 595.511719 71.242188 597.355469 71.234375 C 660.65625 140.242188 719.007812 242.664062 717.644531 401.15625 C 716.527344 530.386719 678.796875 627.183594 619.558594 699.367188 C 612.730469 707.699219 598.800781 728.824219 595.511719 728.980469 C 581.984375 729.652344 555.972656 672.78125 541.851562 669.757812 " fill-opacity="1" fill-rule="evenodd"/></g><path fill="#bcfdff" d="M 330.886719 208.707031 C 339.449219 232.761719 332.175781 274.925781 334.582031 305.996094 C 343.742188 319.503906 354.878906 321.390625 364.191406 333.492188 C 405.882812 387.746094 388.972656 493.410156 334.582031 517.480469 L 334.582031 616.890625 C 290.175781 590.917969 248.167969 562.058594 203.199219 532.292969 C 189.390625 523.15625 172.125 507.9375 158.785156 504.800781 C 133.347656 498.816406 110.0625 509.148438 81.0625 504.800781 L 81.0625 314.445312 C 109.542969 310.75 132.117188 319.542969 156.933594 314.445312 C 179.835938 309.769531 218.035156 277.523438 240.207031 263.691406 C 272.894531 243.316406 302.953125 225.238281 329.042969 208.707031 L 330.886719 208.707031 " fill-opacity="1" fill-rule="evenodd"/><path fill="#bcfdff" d="M 469.664062 587.28125 C 452.253906 564.195312 431.570312 544.820312 414.15625 521.730469 C 432.320312 486.773438 456.332031 442.023438 453.023438 388.476562 C 450.097656 341.4375 427.914062 305.496094 414.15625 276.386719 C 429.933594 252.121094 451.925781 234.960938 467.816406 210.820312 C 566.421875 264.265625 565.496094 531.160156 469.664062 587.28125 " fill-opacity="1" fill-rule="evenodd"/></svg>