<svg xmlns="http://www.w3.org/2000/svg" xmlns:xlink="http://www.w3.org/1999/xlink" width="1080" zoomAndPan="magnify" viewBox="0 0 810 809.999993" height="1080" preserveAspectRatio="xMidYMid meet" version="1.0"><defs><clipPath id="fc10657873"><path d="M 14.542969 375 L 33 375 L 33 435 L 14.542969 435 Z M 14.542969 375 " clip-rule="nonzero"/></clipPath><clipPath id="e7ced598d1"><path d="M 194 237.011719 L 213 237.011719 L 213 573 L 194 573 Z M 194 237.011719 " clip-rule="nonzero"/></clipPath><clipPath id="04df9aa92f"><path d="M 777 354 L 795.292969 354 L 795.292969 456 L 777 456 Z M 777 354 " clip-rule="nonzero"/></clipPath></defs><g clip-path="url(#fc10657873)"><path fill="#bcfdff" d="M 23.625 434.65625 C 18.609375 434.65625 14.542969 430.589844 14.542969 425.574219 L 14.542969 384.402344 C 14.542969 379.386719 18.609375 375.320312 23.625 375.320312 C 28.640625 375.320312 32.703125 379.386719 32.703125 384.402344 L 32.703125 425.574219 C 32.703125 430.589844 28.640625 434.65625 23.625 434.65625 Z M 23.625 434.65625 " fill-opacity="1" fill-rule="nonzero"/></g><path fill="#bcfdff" d="M 68.488281 491.894531 C 63.472656 491.894531 59.410156 487.828125 59.410156 482.816406 L 59.410156 327.160156 C 59.410156 322.144531 63.472656 318.082031 68.488281 318.082031 C 73.503906 318.082031 77.570312 322.144531 77.570312 327.160156 L 77.570312 482.816406 C 77.570312 487.828125 73.503906 491.894531 68.488281 491.894531 Z M 68.488281 491.894531 " fill-opacity="1" fill-rule="nonzero"/><path fill="#bcfdff" d="M 113.355469 482.167969 C 108.339844 482.167969 104.273438 478.101562 104.273438 473.085938 L 104.273438 336.890625 C 104.273438 331.875 108.339844 327.808594 113.355469 327.808594 C 118.371094 327.808594 122.433594 331.875 122.433594 336.890625 L 122.433594 473.085938 C 122.433594 478.101562 118.371094 482.167969 113.355469 482.167969 Z M 113.355469 482.167969 " fill-opacity="1" fill-rule="nonzero"/><path fill="#bcfdff" d="M 158.21875 501.378906 C 153.203125 501.378906 149.136719 497.316406 149.136719 492.300781 L 149.136719 317.675781 C 149.136719 312.660156 153.203125 308.59375 158.21875 308.59375 C 163.234375 308.59375 167.300781 312.660156 167.300781 317.675781 L 167.300781 492.300781 C 167.300781 497.316406 163.234375 501.378906 158.21875 501.378906 Z M 158.21875 501.378906 " fill-opacity="1" fill-rule="nonzero"/><g clip-path="url(#e7ced598d1)"><path fill="#bcfdff" d="M 203.082031 572.640625 C 198.070312 572.640625 194.003906 568.574219 194.003906 563.558594 L 194.003906 246.414062 C 194.003906 241.398438 198.070312 237.335938 203.082031 237.335938 C 208.097656 237.335938 212.164062 241.398438 212.164062 246.414062 L 212.164062 563.558594 C 212.164062 568.574219 208.097656 572.640625 203.082031 572.640625 Z M 203.082031 572.640625 " fill-opacity="1" fill-rule="nonzero"/></g><path fill="#bcfdff" d="M 247.949219 545.402344 C 242.933594 545.402344 238.867188 541.335938 238.867188 536.320312 L 238.867188 273.65625 C 238.867188 268.640625 242.933594 264.574219 247.949219 264.574219 C 252.964844 264.574219 257.027344 268.640625 257.027344 273.65625 L 257.027344 536.320312 C 257.027344 541.335938 252.964844 545.402344 247.949219 545.402344 Z M 247.949219 545.402344 " fill-opacity="1" fill-rule="nonzero"/><path fill="#bcfdff" d="M 292.8125 533.238281 C 287.796875 533.238281 283.734375 529.175781 283.734375 524.160156 L 283.734375 285.816406 C 283.734375 280.800781 287.796875 276.734375 292.8125 276.734375 C 297.828125 276.734375 301.894531 280.800781 301.894531 285.816406 L 301.894531 524.160156 C 301.894531 529.175781 297.828125 533.238281 292.8125 533.238281 Z M 292.8125 533.238281 " fill-opacity="1" fill-rule="nonzero"/><path fill="#bcfdff" d="M 337.679688 492.382812 C 332.664062 492.382812 328.597656 488.316406 328.597656 483.300781 L 328.597656 326.675781 C 328.597656 321.660156 332.664062 317.59375 337.679688 317.59375 C 342.691406 317.59375 346.757812 321.660156 346.757812 326.675781 L 346.757812 483.300781 C 346.757812 488.316406 342.691406 492.382812 337.679688 492.382812 Z M 337.679688 492.382812 " fill-opacity="1" fill-rule="nonzero"/><path fill="#bcfdff" d="M 382.542969 457.359375 C 377.527344 457.359375 373.464844 453.292969 373.464844 448.277344 L 373.464844 361.695312 C 373.464844 356.679688 377.527344 352.617188 382.542969 352.617188 C 387.558594 352.617188 391.625 356.679688 391.625 361.695312 L 391.625 448.277344 C 391.625 453.292969 387.558594 457.359375 382.542969 457.359375 Z M 382.542969 457.359375 " fill-opacity="1" fill-rule="nonzero"/><path fill="#bcfdff" d="M 427.410156 441.0625 C 422.394531 441.0625 418.328125 437 418.328125 431.984375 L 418.328125 377.992188 C 418.328125 372.976562 422.394531 368.910156 427.410156 368.910156 C 432.421875 368.910156 436.488281 372.976562 436.488281 377.992188 L 436.488281 431.984375 C 436.488281 437 432.421875 441.0625 427.410156 441.0625 Z M 427.410156 441.0625 " fill-opacity="1" fill-rule="nonzero"/><path fill="#bcfdff" d="M 472.273438 441.0625 C 467.257812 441.0625 463.191406 437 463.191406 431.984375 L 463.191406 377.992188 C 463.191406 372.976562 467.257812 368.910156 472.273438 368.910156 C 477.289062 368.910156 481.351562 372.976562 481.351562 377.992188 L 481.351562 431.984375 C 481.351562 437 477.289062 441.0625 472.273438 441.0625 Z M 472.273438 441.0625 " fill-opacity="1" fill-rule="nonzero"/><path fill="#bcfdff" d="M 517.136719 527.402344 C 512.121094 527.402344 508.058594 523.339844 508.058594 518.324219 L 508.058594 291.652344 C 508.058594 286.636719 512.121094 282.570312 517.136719 282.570312 C 522.152344 282.570312 526.21875 286.636719 526.21875 291.652344 L 526.21875 518.324219 C 526.21875 523.339844 522.152344 527.402344 517.136719 527.402344 Z M 517.136719 527.402344 " fill-opacity="1" fill-rule="nonzero"/><path fill="#bcfdff" d="M 562.003906 557.804688 C 556.988281 557.804688 552.921875 553.738281 552.921875 548.722656 L 552.921875 261.25 C 552.921875 256.234375 556.988281 252.171875 562.003906 252.171875 C 567.019531 252.171875 571.082031 256.234375 571.082031 261.25 L 571.082031 548.722656 C 571.082031 553.738281 567.019531 557.804688 562.003906 557.804688 Z M 562.003906 557.804688 " fill-opacity="1" fill-rule="nonzero"/><path fill="#bcfdff" d="M 606.867188 539.441406 C 601.851562 539.441406 597.789062 535.378906 597.789062 530.363281 L 597.789062 279.613281 C 597.789062 274.597656 601.851562 270.535156 606.867188 270.535156 C 611.882812 270.535156 615.949219 274.597656 615.949219 279.613281 L 615.949219 530.363281 C 615.949219 535.378906 611.882812 539.441406 606.867188 539.441406 Z M 606.867188 539.441406 " fill-opacity="1" fill-rule="nonzero"/><path fill="#bcfdff" d="M 651.734375 512.019531 C 646.71875 512.019531 642.652344 507.957031 642.652344 502.941406 L 642.652344 307.035156 C 642.652344 302.019531 646.71875 297.953125 651.734375 297.953125 C 656.75 297.953125 660.8125 302.019531 660.8125 307.035156 L 660.8125 502.941406 C 660.8125 507.957031 656.75 512.019531 651.734375 512.019531 Z M 651.734375 512.019531 " fill-opacity="1" fill-rule="nonzero"/><path fill="#bcfdff" d="M 696.597656 566.164062 C 691.582031 566.164062 687.519531 562.101562 687.519531 557.085938 L 687.519531 252.890625 C 687.519531 247.875 691.582031 243.8125 696.597656 243.8125 C 701.613281 243.8125 705.679688 247.875 705.679688 252.890625 L 705.679688 557.085938 C 705.679688 562.101562 701.613281 566.164062 696.597656 566.164062 Z M 696.597656 566.164062 " fill-opacity="1" fill-rule="nonzero"/><path fill="#bcfdff" d="M 741.460938 485.375 C 736.449219 485.375 732.382812 481.308594 732.382812 476.296875 L 732.382812 333.679688 C 732.382812 328.664062 736.449219 324.601562 741.460938 324.601562 C 746.476562 324.601562 750.542969 328.664062 750.542969 333.679688 L 750.542969 476.296875 C 750.542969 481.308594 746.476562 485.375 741.460938 485.375 Z M 741.460938 485.375 " fill-opacity="1" fill-rule="nonzero"/><g clip-path="url(#04df9aa92f)"><path fill="#bcfdff" d="M 786.328125 455.503906 C 781.3125 455.503906 777.246094 451.4375 777.246094 446.425781 L 777.246094 363.550781 C 777.246094 358.535156 781.3125 354.46875 786.328125 354.46875 C 791.34375 354.46875 795.40625 358.535156 795.40625 363.550781 L 795.40625 446.425781 C 795.40625 451.4375 791.34375 455.503906 786.328125 455.503906 Z M 786.328125 455.503906 " fill-opacity="1" fill-rule="nonzero"/></g></svg>