<svg xmlns="http://www.w3.org/2000/svg" xmlns:xlink="http://www.w3.org/1999/xlink" width="1080" zoomAndPan="magnify" viewBox="0 0 810 809.999993" height="1080" preserveAspectRatio="xMidYMid meet" version="1.0"><defs><clipPath id="f49ac05d0c"><path d="M 148 55.121094 L 692.828125 55.121094 L 692.828125 754 L 148 754 Z M 148 55.121094 " clip-rule="nonzero"/></clipPath></defs><g clip-path="url(#f49ac05d0c)"><path fill="#bcfdff" d="M 492.003906 181.984375 L 492.003906 182.089844 C 542.523438 256.734375 606.859375 352.105469 617.789062 446.339844 L 571.90625 422.523438 L 570.050781 421.59375 L 427.359375 498.507812 L 425.398438 499.644531 L 426.429688 626.5625 C 426.765625 634.664062 428.074219 642.601562 430.359375 650.382812 C 432.644531 658.164062 435.835938 665.550781 439.9375 672.542969 L 443.238281 670.585938 L 440.660156 673.886719 C 441.511719 675.410156 442.441406 676.886719 443.441406 678.320312 C 424.972656 683.042969 406.210938 685.585938 387.148438 685.949219 L 384.46875 685.949219 C 298.6875 685.949219 194.039062 635.429688 159.914062 538.925781 C 117.023438 417.675781 207.441406 284.367188 273.429688 186.933594 C 304.410156 141.304688 339.949219 99.546875 380.035156 61.664062 L 386.117188 55.996094 L 391.996094 61.769531 C 429.371094 98.480469 462.707031 138.554688 492.003906 181.984375 Z M 692.433594 511.808594 L 693.257812 624.191406 C 693.464844 644.914062 680.269531 670.585938 656.246094 696.359375 C 645.484375 707.9375 633.695312 718.347656 620.882812 727.601562 C 619.851562 728.21875 618.921875 728.941406 618.199219 729.457031 C 604.15625 739.597656 589.035156 747.746094 572.835938 753.890625 C 569.125 752.550781 565.207031 751.109375 561.597656 749.5625 C 560.773438 749.148438 559.949219 748.738281 559.433594 748.53125 C 546.128906 742.34375 533.503906 734.988281 521.5625 726.460938 C 509.621094 717.933594 498.566406 708.382812 488.394531 697.804688 C 486.644531 696.050781 484.992188 694.300781 483.445312 692.445312 C 477.386719 685.800781 471.886719 678.71875 466.949219 671.203125 C 465.09375 668.421875 463.339844 665.636719 461.691406 662.75 C 461.292969 661.84375 460.8125 660.984375 460.25 660.171875 C 457.25 655 454.90625 649.546875 453.214844 643.8125 C 451.527344 638.078125 450.535156 632.222656 450.246094 626.253906 L 449.320312 513.769531 L 570.257812 448.503906 L 619.4375 473.96875 L 644.902344 487.167969 Z M 640.882812 548.71875 C 640.289062 548.15625 639.644531 547.65625 638.953125 547.21875 C 638.265625 546.78125 637.539062 546.410156 636.777344 546.109375 C 636.015625 545.808594 635.234375 545.585938 634.429688 545.433594 C 633.625 545.285156 632.8125 545.210938 631.996094 545.214844 C 631.175781 545.222656 630.367188 545.304688 629.566406 545.464844 C 628.761719 545.621094 627.980469 545.855469 627.226562 546.164062 C 626.46875 546.476562 625.746094 546.851562 625.058594 547.300781 C 624.375 547.746094 623.738281 548.253906 623.148438 548.824219 L 578.722656 593.363281 L 547.171875 624.910156 L 520.574219 594.1875 C 519.601562 592.851562 518.410156 591.753906 516.996094 590.898438 C 515.585938 590.039062 514.0625 589.484375 512.429688 589.238281 C 510.777344 588.980469 509.136719 589.050781 507.511719 589.441406 C 505.886719 589.835938 504.398438 590.523438 503.046875 591.507812 C 501.699219 592.492188 500.597656 593.699219 499.738281 595.128906 C 498.878906 596.5625 498.332031 598.101562 498.097656 599.753906 C 497.84375 601.429688 497.925781 603.089844 498.335938 604.734375 C 498.746094 606.378906 499.457031 607.878906 500.46875 609.238281 L 527.273438 640.996094 L 535.730469 651.097656 C 536.15625 651.699219 536.636719 652.246094 537.171875 652.75 C 538.339844 653.941406 539.691406 654.855469 541.230469 655.5 C 542.769531 656.144531 544.371094 656.464844 546.039062 656.460938 C 548.070312 656.460938 549.960938 655.945312 551.710938 654.914062 C 552.90625 654.382812 553.96875 653.660156 554.90625 652.75 L 555.730469 651.925781 C 572.554688 638.949219 587.4375 624.03125 600.375 607.179688 L 640.996094 566.554688 C 641.574219 565.964844 642.089844 565.324219 642.542969 564.632812 C 643 563.941406 643.378906 563.210938 643.691406 562.441406 C 644 561.675781 644.234375 560.886719 644.390625 560.074219 C 644.542969 559.261719 644.621094 558.441406 644.613281 557.613281 C 644.609375 556.785156 644.523438 555.96875 644.359375 555.15625 C 644.191406 554.347656 643.949219 553.558594 643.628906 552.796875 C 643.308594 552.035156 642.917969 551.308594 642.457031 550.625 C 641.992188 549.9375 641.46875 549.304688 640.882812 548.71875 Z M 640.882812 548.71875 " fill-opacity="1" fill-rule="nonzero"/></g></svg>